<?xml version="1.0" encoding="UTF-8" standalone="no"?>
<svg
   xmlns:dc="http://purl.org/dc/elements/1.1/"
   xmlns:cc="http://creativecommons.org/ns#"
   xmlns:rdf="http://www.w3.org/1999/02/22-rdf-syntax-ns#"
   xmlns:svg="http://www.w3.org/2000/svg"
   xmlns="http://www.w3.org/2000/svg"
   xmlns:xlink="http://www.w3.org/1999/xlink"
   id="svg898"
   version="1.1"
   viewBox="0 0 146.35701 59.807285"
   height="59.807285mm"
   width="146.35701mm">
  <defs
     id="defs892">
    <linearGradient
       gradientTransform="translate(293.90543,-186.27632)"
       gradientUnits="userSpaceOnUse"
       y2="218.20293"
       x2="-101.50347"
       y1="321.58881"
       x1="-306.82541"
       id="linearGradient4564"
       xlink:href="#linearGradient4562" />
    <linearGradient
       id="linearGradient4562">
      <stop
         id="stop4558"
         offset="0"
         style="stop-color:#1abc9c;stop-opacity:1" />
      <stop
         id="stop4560"
         offset="1"
         style="stop-color:#2ecc71;stop-opacity:1" />
    </linearGradient>
  </defs>
  <metadata
     id="metadata895">
    <rdf:RDF>
      <cc:Work
         rdf:about="">
        <dc:format>image/svg+xml</dc:format>
        <dc:type
           rdf:resource="http://purl.org/dc/dcmitype/StillImage" />
        <dc:title></dc:title>
      </cc:Work>
    </rdf:RDF>
  </metadata>
  <g
     transform="translate(-22.827447,-58.453506)"
     id="layer1">
    <path
       id="path826"
       d="m 24.831977,58.45462 c -0.37078,0.0161 -0.7267,0.22409 -0.89969,0.58446 -0.23629,0.47264 -0.4427,0.96001 -0.61856,1.45831 -0.15709,0.50271 -0.25435,1.02289 -0.30954,1.54668 -0.11888,1.13015 -0.17674,2.2665 -0.17674,3.40289 0,1.12013 0.0295,2.24038 0.0884,3.35897 0.11684,1.752239 0.22034,3.50576 0.30956,5.25963 0.09,1.74009 0.20876,3.47827 0.35346,5.21467 0.0598,1.0459 0.11864,2.09178 0.17674,3.13779 0.0582,1.04821 0.14589,2.09526 0.26509,3.138309 0.11797,1.356701 0.25074,2.712051 0.3979,4.0659 0.14751,1.357021 0.30922,2.71236 0.48578,4.06591 0.14554,1.19349 0.29321,2.386571 0.44233,3.57963 0.14965,1.197081 0.32718,2.390931 0.5302,3.580131 l 0.79531,4.86119 c 0.29681,1.60279 0.57652,3.20868 0.83973,4.81729 0.20109,1.20637 0.46384,2.40306 0.79582,3.58013 0.33111,1.14381 0.81441,2.24209 1.41439,3.27062 0.28446,0.43965 0.80475,0.71729 1.3255,0.66249 0.30949,-0.0281 0.61888,-0.0575 0.92811,-0.0884 0.30102,-0.0602 0.52198,-0.32734 0.61908,-0.61856 0.1489,-0.35737 0.26647,-0.7276 0.35347,-1.10484 0.0869,-0.3765 0.13229,-0.7629 0.13229,-1.14927 0,-0.86988 -0.0305,-1.7397 -0.0884,-2.60761 -0.0295,-0.88456 -0.0734,-1.76843 -0.1323,-2.65153 -0.0573,-0.57343 -0.10251,-1.14789 -0.13281,-1.72341 -0.0295,-0.59023 -0.0735,-1.17981 -0.13229,-1.76784 -0.14563,-1.25241 -0.2933,-2.50487 -0.44235,-3.75687 -0.118,-1.23899 -0.25026,-2.47658 -0.39739,-3.712449 -0.14712,-1.23584 -0.27991,-2.47346 -0.39791,-3.712422 -0.0874,-1.25344 -0.19041,-2.505549 -0.30954,-3.756369 -0.0291,-0.14542 -0.0439,-0.293531 -0.0439,-0.44183 0.0382,-0.18864 0.0439,-0.382281 0.0439,-0.574651 0.24762,0.123811 0.49434,0.250661 0.75138,0.35347 1.22616,0.67147 2.44926,1.348991 3.6685,2.032942 1.2256,0.65768 2.44805,1.32099 3.668,1.989029 l 4.50773,2.563151 c 1.5153,0.831929 3.01827,1.6867 4.50826,2.563148 1.4394,0.851911 2.868701,1.721151 4.287071,2.607611 1.41837,0.88648 2.84716,1.75569 4.28656,2.6076 0.94747,0.56255 1.905338,1.10738 2.8727,1.63502 0.98417,0.52104 1.97109,1.03722 2.96105,1.5472 0.663749,0.34631 1.382599,0.58864 2.121839,0.70694 0.73275,0.11724 1.46997,0.2059 2.209681,0.26509 0.215209,0.0239 0.449479,0.003 0.618569,-0.1323 0.167921,-0.13432 0.277972,-0.32935 0.353471,-0.5307 0.16284,-0.35285 0.0541,-0.78562 -0.22066,-1.06039 -0.316849,-0.31687 -0.640991,-0.6267 -0.97255,-0.92814 -0.31685,-0.31683 -0.64048,-0.62669 -0.97204,-0.9281 -0.405252,-0.37629 -0.817761,-0.74494 -1.237649,-1.10482 -0.399291,-0.36859 -0.813332,-0.72149 -1.237652,-1.06093 -0.398741,-0.31329 -0.810581,-0.60947 -1.237129,-0.88368 -0.429641,-0.2762 -0.856612,-0.55642 -1.28158,-0.83973 -0.671031,-0.43763 -1.34914,-0.86503 -2.033461,-1.28157 -0.662019,-0.45138 -1.340839,-0.87839 -2.03295,-1.282091 -1.490458,-0.818298 -2.992929,-1.61417 -4.50774,-2.386428 -1.514809,-0.772242 -3.0173,-1.568141 -4.50774,-2.386412 -2.21608,-1.24101 -4.42611,-2.493568 -6.62956,-3.75688 -2.19134,-1.273349 -4.38643,-2.540209 -6.58513,-3.8008 -0.12448,-0.0622 -0.24214,-0.13716 -0.35347,-0.22066 -0.13438,-0.10079 -0.26674,-0.20461 -0.39791,-0.309539 0.19069,-0.119181 0.38181,-0.23777 0.57464,-0.35347 0.14054,-0.112421 0.28753,-0.21694 0.44184,-0.309541 2.92909,-1.786749 5.8606,-3.569169 8.79481,-5.347479 2.9529,-1.77173 5.89941,-3.55418 8.839251,-5.34747 0.473289,-0.27841 0.922538,-0.600121 1.32602,-0.97256 0.42567,-0.36487 0.765749,-0.82456 1.016468,-1.32601 0.163701,-0.34778 0.348631,-0.761051 0.176742,-1.10485 -0.121992,-0.36595 -0.556429,-0.51532 -0.928111,-0.61856 -0.159811,-0.0319 -0.323289,-0.0444 -0.48627,-0.0444 -0.147298,-0.0295 -0.302379,-0.0114 -0.44184,0.0444 -0.28261,0.0628 -0.562449,0.13746 -0.83974,0.22066 -0.259909,0.0578 -0.513239,0.14654 -0.751369,0.26561 l -2.298061,1.14877 c -0.7659,0.35349 -1.51812,0.73713 -2.25412,1.149279 -1.3682,0.727771 -2.72405,1.478841 -4.0659,2.254131 -1.35464,0.75258 -2.70991,1.50349 -4.06591,2.25361 -1.33218,0.7401 -2.65799,1.49174 -3.97753,2.25412 -1.295,0.76524 -2.56302,1.57619 -3.8008,2.43086 -0.0548,0.0274 -0.11544,0.0439 -0.17673,0.0439 -0.0613,0 -0.12194,0.017 -0.17674,0.0444 h -5.02e-4 c -0.0577,-0.75044 -0.1022,-1.50206 -0.132301,-2.25412 0,-0.76681 -0.0296,-1.5335 -0.0884,-2.29805 -0.116797,-1.45985 -0.249257,-2.91853 -0.397917,-4.375451 -0.11928,-1.461109 -0.26717,-2.91992 -0.44184,-4.37544 -0.11647,-0.78619 -0.26312,-1.567559 -0.44183,-2.341979 v -5.3e-4 c -0.14581,-0.78736 -0.32254,-1.56873 -0.53072,-2.34196 -0.20138,-0.83428 -0.43553,-1.6611 -0.70694,-2.4753 -0.23889,-0.80628 -0.55203,-1.58983 -0.92811,-2.34198 -0.17259,-0.31642 -0.37909,-0.61479 -0.61857,-0.88418 -0.20529,-0.29329 -0.48151,-0.53551 -0.79581,-0.70693 -0.19688,-0.13697 -0.42452,-0.19623 -0.64699,-0.18656 z m 102.942043,14.3459 c -0.4771,-0.0111 -0.95495,0.0265 -1.42368,0.115749 -0.61332,0.092 -1.18995,0.370631 -1.67949,0.751381 -0.22861,0.200039 -0.46443,0.39238 -0.70745,0.574639 -0.21351,0.152511 -0.41934,0.315001 -0.61856,0.485761 -0.989,0.78538 -1.89624,1.67459 -2.69596,2.65203 -0.79697,0.97408 -1.57797,1.9613 -2.3425,2.96106 -0.90449,1.21542 -1.67522,2.5328 -2.2536,3.9331 -0.0661,0.16533 -0.14158,0.32701 -0.22118,0.48627 l -0.30954,0.618569 c -0.0184,-0.0921 -0.022,-0.198699 -0.0884,-0.265099 v -0.176739 l -0.44183,-2.298051 c -0.11913,-0.77429 -0.28262,-1.54158 -0.48628,-2.29805 -0.29063,-1.10437 -0.6286,-2.19651 -1.01647,-3.2706 -0.37427,-1.06523 -0.85991,-2.09198 -1.45831,-3.04943 -0.15421,-0.23131 -0.3039,-0.46555 -0.44183,-0.70693 -0.12719,-0.22267 -0.40664,-0.30954 -0.66301,-0.30954 h -0.48628 c -0.16541,0 -0.32935,0.0361 -0.48627,0.0884 v -0.0429 c -5.3e-4,0.0281 -0.0148,0.0424 -0.0429,0.0429 h -0.001 c -0.0621,0 -0.13283,5.3e-4 -0.17673,0.0444 -0.24768,0.0826 -0.49899,0.15196 -0.75086,0.220661 h -5.3e-4 c -0.32711,0.0595 -0.65127,0.133669 -0.97203,0.22117 -0.27285,0.0819 -0.54051,0.18163 -0.7953,0.30903 -0.15308,0.0765 -0.34381,0.147179 -0.39791,0.309539 0,0.530031 0.0573,1.062011 0.0884,1.59112 0.11699,1.325951 0.23508,2.651711 0.35346,3.977531 0.20348,1.89917 0.39233,3.80014 0.57465,5.70146 0.24865,2.2689 0.49931,4.537271 0.75137,6.80579 0.3003,2.40243 0.61002,4.80405 0.92811,7.20422 0.31274,2.331319 0.64962,4.659069 1.01648,6.982509 0.32602,2.03766 0.67428,4.07173 1.0604,6.09886 0.31928,1.54733 0.67176,3.09058 1.14928,4.59661 0.14091,0.39455 0.45466,0.71866 0.83974,0.88368 0.45463,0.15158 0.93517,0.22117 1.41439,0.22117 0.52013,0 1.04037,-0.0576 1.54667,-0.17674 0.409,-0.0962 0.81741,-0.21 1.19321,-0.39791 0.33351,0 0.67712,-0.0894 0.92811,-0.30901 l 0.2651,-0.26561 c 0.22489,-0.28112 0.38315,-0.61696 0.44235,-0.97205 0.0872,-0.37796 0.14703,-0.76253 0.17673,-1.14927 l 0.0884,-0.61857 c 0.0295,-0.20626 0.0128,-0.41827 -0.0444,-0.61858 l -0.17673,-0.79582 -0.17674,-0.79531 c -0.0906,-0.60367 -0.1788,-1.20798 -0.2651,-1.81229 -0.0863,-0.60431 -0.1745,-1.20808 -0.2651,-1.81176 -0.0605,-0.6055 -0.13507,-1.20988 -0.22118,-1.81231 l -0.17673,-1.85622 -0.17673,-0.79528 c -0.0313,-0.28173 -0.0772,-0.56179 -0.13281,-0.83976 -0.14701,-0.97025 -0.27931,-1.94292 -0.39739,-2.91714 -0.0878,-0.96546 -0.23518,-1.925609 -0.44235,-2.872688 -0.14408,-0.749242 -0.27685,-1.500211 -0.39739,-2.253613 l -0.2651,-2.298038 v -0.53072 c 0,-0.18029 0.0214,-0.362799 0.0884,-0.530201 0.31999,-1.30905 0.73154,-2.596089 1.23714,-3.84524 0.52997,-1.236588 1.15111,-2.433849 1.85621,-3.579629 0.75603,-1.22129 1.59677,-2.39027 2.51923,-3.49126 0.91007,-1.11558 1.88447,-2.17907 2.91713,-3.18223 0.22978,-0.22979 0.48099,-0.438311 0.75138,-0.61857 0.30177,-0.21124 0.59603,-0.4329 0.88367,-0.66301 0.10907,0.21814 0.21344,0.43884 0.30954,0.66301 0.11748,0.17622 0.2069,0.3705 0.2651,0.57413 0.15064,0.63269 0.29769,1.26645 0.44183,1.90066 0.17397,0.6089 0.30831,1.2293 0.39791,1.85621 0.11924,0.86451 0.19156,1.7354 0.22066,2.6076 0.0581,0.87191 0.14622,1.74194 0.26561,2.60759 0.11968,1.226579 0.644,2.39662 1.41387,3.35897 0.15175,0.216789 0.32361,0.4465 0.57465,0.530199 0.2723,0.0389 0.54488,-0.0629 0.7953,-0.176739 l 0.26561,-2.51922 c 0.0617,-0.246901 0.10419,-0.49844 0.1323,-0.75138 0.0294,-0.264091 0.0444,-0.529582 0.0444,-0.7953 0.0288,-1.209241 -0.0124,-2.42048 -0.1328,-3.62407 -0.0898,-1.1975 -0.22402,-2.39193 -0.39791,-3.58014 -0.14469,-0.95494 -0.34979,-1.90071 -0.61909,-2.82825 -0.24227,-0.93884 -0.71303,-1.81201 -1.32549,-2.56367 -0.146,-0.20438 -0.30869,-0.39704 -0.48628,-0.57464 -0.1759,-0.175911 -0.41577,-0.281521 -0.66301,-0.309021 -0.1584,-0.0144 -0.31742,-0.0237 -0.47646,-0.0274 z m 33.61811,0.22324 c -0.28727,-0.006 -0.54177,0.0471 -0.76275,0.15761 -0.26517,0.11786 -0.4418,0.33891 -0.5302,0.66301 -0.2357,0.67767 -0.45676,1.35529 -0.66301,2.03295 -0.20624,0.6482 -0.4273,1.34081 -0.66301,2.07739 -0.0589,0 -0.11779,0.0145 -0.17673,0.0439 -0.0589,0.0295 -0.13226,0.0444 -0.22066,0.0444 -1.50264,0.23571 -2.97616,0.57452 -4.41988,1.01648 -1.41426,0.44195 -2.82838,1.00181 -4.24264,1.67948 -1.41425,0.67767 -2.72508,1.45807 -3.93309,2.34198 -1.20801,0.88391 -2.37216,1.85644 -3.49178,2.91713 -1.85621,1.767819 -3.35865,3.75679 -4.50773,5.966561 -0.50088,0.942848 -0.89857,1.914848 -1.19321,2.916608 -0.26517,0.97232 -0.51567,1.974271 -0.75137,3.005511 -0.29464,1.41425 -0.5157,2.82837 -0.66301,4.24265 -0.11786,1.38477 -0.074,2.78445 0.13229,4.1987 0.0884,0.76605 0.2361,1.50257 0.44235,2.20969 0.2357,0.70713 0.58898,1.36978 1.0604,1.9885 0.44195,0.61873 0.94293,1.1347 1.50275,1.54718 0.58927,0.41249 1.2669,0.64802 2.03295,0.70694 1.64997,0.14732 3.2118,-0.16206 4.68499,-0.9281 0.94284,-0.44196 1.76765,-1.00182 2.47478,-1.6795 0.70713,-0.70712 1.38475,-1.45806 2.03295,-2.25359 0.26517,-0.35356 0.53013,-0.70736 0.7953,-1.06092 0.26517,-0.38304 0.51567,-0.78074 0.75138,-1.19322 0.3241,-0.55981 0.60402,-1.11967 0.83974,-1.67947 0.2357,-0.58928 0.51564,-1.16361 0.83974,-1.72342 0.70713,-1.35533 1.39973,-2.696101 2.07739,-4.021981 0.70713,-1.355328 1.32587,-2.739999 1.85622,-4.154249 0.11785,-0.32412 0.26505,-0.61902 0.44183,-0.88419 0.20624,-0.29464 0.44176,-0.60401 0.70694,-0.928111 0.0589,0.441971 0.0889,0.85461 0.0889,1.237652 l 0.0884,1.148768 c 0.14731,1.414251 0.29451,2.813921 0.44183,4.198702 0.17678,1.355329 0.33896,2.740019 0.48628,4.154269 0.0884,0.94285 0.20615,1.87095 0.35346,2.78432 0.14732,0.91339 0.32395,1.82703 0.5302,2.74042 0.35357,1.50265 0.76624,2.96117 1.23765,4.37544 0.47142,1.41425 1.14904,2.75451 2.03295,4.02147 0.26518,0.32408 0.54511,0.57458 0.83975,0.75136 0.3241,0.17677 0.61849,0.29453 0.88366,0.35348 0.3241,0.11785 0.64845,0.16226 0.97255,0.1328 0.3241,-0.0884 0.64794,-0.1917 0.97204,-0.30954 l 0.79581,-0.35345 c 0.29464,-0.14732 0.5596,-0.33897 0.7953,-0.57465 0.29464,-0.29464 0.51569,-0.55961 0.66301,-0.79531 0.14733,-0.26518 0.19123,-0.60397 0.13229,-1.01648 -0.0589,-0.29461 -0.10282,-0.5007 -0.13229,-0.61858 -0.2357,-0.70712 -0.47122,-1.39972 -0.70693,-2.07737 -0.20624,-0.67768 -0.39786,-1.37028 -0.57464,-2.07741 l -0.97255,-3.71242 c -0.3241,-1.26696 -0.6185,-2.53389 -0.88367,-3.80082 -0.47142,-2.12137 -0.88409,-4.228089 -1.23765,-6.32002 -0.3241,-2.121379 -0.57459,-4.27201 -0.75138,-6.45232 -0.14732,-1.73836 -0.19122,-3.46185 -0.13229,-5.17074 0.0589,-1.73836 0.13227,-3.47683 0.22066,-5.21519 0.0589,-0.67766 0.10334,-1.37026 0.13281,-2.07739 0.0589,-0.70712 0.0145,-1.39921 -0.13281,-2.07688 -0.0589,-0.50088 -0.27998,-1.01684 -0.66301,-1.54719 -0.35356,-0.5598 -0.89845,-0.86917 -1.63504,-0.928111 -0.10312,-0.0147 -0.20242,-0.023 -0.29817,-0.0248 z m -65.834741,0.002 c -0.272841,-0.008 -0.546841,0.0347 -0.789623,0.15606 -0.267919,0.11908 -0.453099,0.38015 -0.530198,0.66301 -0.23418,0.67327 -0.45547,1.351 -0.663012,2.03295 -0.220368,0.69259 -0.441489,1.38518 -0.663008,2.07739 -0.0613,0 -0.121931,0.0165 -0.176731,0.0439 -0.0678,0.0339 -0.14486,0.0444 -0.22066,0.0444 -1.494629,0.23446 -2.97324,0.573631 -4.419878,1.01648 -1.453031,0.454071 -2.869771,1.021651 -4.242641,1.67948 -1.378141,0.66036 -2.699801,1.439581 -3.93309,2.34198 h -5.29e-4 c -1.224698,0.896121 -2.3896,1.873461 -3.491259,2.917131 -1.81333,1.726988 -3.35244,3.744859 -4.50773,5.96656 -0.493692,0.929328 -0.89629,1.907069 -1.19321,2.916608 -0.271719,0.996292 -0.521272,1.9988 -0.75138,3.005511 -0.292071,1.401921 -0.514641,2.81832 -0.663011,4.24265 -0.118999,1.39824 -0.0702,2.81006 0.132299,4.1987 0.0862,0.7471 0.231773,1.4877 0.442352,2.20969 0.238681,0.71602 0.60298,1.38814 1.060389,1.9885 0.41959,0.58741 0.921621,1.11898 1.502759,1.54718 0.595032,0.41654 1.308772,0.65125 2.032953,0.70694 1.607899,0.14356 3.252748,-0.18335 4.68498,-0.9281 0.90678,-0.42506 1.751758,-0.98658 2.474788,-1.6795 0.715751,-0.71575 1.39356,-1.46889 2.03295,-2.25359 l 0.7953,-1.06092 c 0.267642,-0.38659 0.518091,-0.78497 0.751372,-1.19322 0.313798,-0.542 0.596709,-1.10226 0.839747,-1.67947 0.237551,-0.59391 0.519251,-1.16983 0.839743,-1.72342 0.697939,-1.3377 1.390698,-2.678429 2.077389,-4.021981 0.70203,-1.345538 1.32333,-2.733198 1.856219,-4.154249 0.11285,-0.31033 0.25867,-0.609439 0.44183,-0.88419 0.223092,-0.318709 0.460582,-0.62702 0.70693,-0.928111 0.0547,0.410221 0.0884,0.823791 0.0884,1.237652 l 0.0889,1.148768 c 0.145812,1.399673 0.292981,2.799342 0.441841,4.198702 0.18034,1.382579 0.34182,2.767489 0.48627,4.154269 0.0873,0.93165 0.20447,1.86053 0.35347,2.78432 0.148159,0.91861 0.32526,1.8328 0.530201,2.74042 0.347268,1.47587 0.75819,2.93706 1.237649,4.37544 0.476671,1.43 1.170459,2.78523 2.03295,4.02147 0.23902,0.29212 0.51607,0.55716 0.83974,0.75136 0.279469,0.15245 0.5729,0.28437 0.883669,0.35348 0.30993,0.11269 0.644101,0.16259 0.97255,0.1328 0.328221,-0.0895 0.652311,-0.19329 0.972041,-0.30954 l 0.79581,-0.35345 c 0.29384,-0.14695 0.563,-0.34235 0.7953,-0.57465 0.24458,-0.24458 0.47969,-0.502 0.66301,-0.79531 0.16888,-0.30404 0.18149,-0.67215 0.13229,-1.01648 -0.0414,-0.20685 -0.0811,-0.41391 -0.13229,-0.61858 0,0 0,-5.2e-4 0,-5.2e-4 -0.23129,-0.69391 -0.46717,-1.38608 -0.70745,-2.07688 -0.20919,-0.68737 -0.39988,-1.38039 -0.57412,-2.07741 l -0.97255,-3.71242 c -0.3224,-1.26029 -0.61718,-2.52756 -0.88367,-3.80082 -0.46573,-2.09576 -0.87987,-4.203138 -1.23765,-6.320019 -0.327091,-2.140979 -0.576349,-4.293579 -0.751379,-6.45232 -0.14569,-1.71905 -0.191791,-3.44656 -0.132292,-5.170739 0.0589,-1.738941 0.13226,-3.477501 0.22066,-5.215191 0.0601,-0.69126 0.10391,-1.38413 0.13281,-2.07739 0.0578,-0.69398 0.01511,-1.39639 -0.13281,-2.07688 -0.0663,-0.56317 -0.330999,-1.08749 -0.663009,-1.54719 -0.348099,-0.55116 -0.985239,-0.87611 -1.63504,-0.92811 -0.0896,-0.0128 -0.180361,-0.0206 -0.271301,-0.0233 z m -3.352252,8.73022 c 0.0801,0.347211 0.107622,0.709811 0.0439,1.0604 -0.0595,0.327111 -0.133162,0.651791 -0.220663,0.972551 -0.295817,1.03536 -0.650927,2.05372 -1.060907,3.049419 l -1.237142,3.004992 c -0.3288,0.777157 -0.68353,1.543798 -1.06091,2.298559 -0.380839,0.76167 -0.72072,1.543439 -1.016479,2.341978 -0.34712,1.012452 -0.82069,1.982182 -1.41438,2.872682 -0.565251,0.892519 -1.095489,1.807451 -1.59112,2.740429 -0.262051,0.49495 -0.512911,0.99599 -0.75138,1.50272 -0.210851,0.5121 -0.44782,1.01283 -0.706929,1.50225 -0.885621,1.65696 -2.226091,3.06814 -3.844732,4.02199 -0.12105,0.0807 -0.25989,0.13073 -0.39791,0.17671 h -0.009 -0.211868 c -0.229661,-0.25836 -0.41207,-0.5588 -0.530201,-0.88365 -0.0841,-0.33645 -0.159179,-0.67527 -0.221181,-1.01648 -0.17507,-0.96287 -0.279419,-1.93892 -0.309018,-2.91713 0,-0.97468 0.0594,-1.94903 0.176729,-2.91661 0.0575,-0.574699 0.116239,-1.149538 0.176739,-1.723949 0.0582,-0.581422 0.160321,-1.158322 0.30902,-1.72339 0.145822,-0.64159 0.322662,-1.276479 0.530722,-1.900661 0.230989,-0.635209 0.46631,-1.26852 0.70693,-1.90015 0.144499,-0.3757 0.306258,-0.74481 0.48628,-1.104839 0.20306,-0.37711 0.39515,-0.76041 0.574638,-1.149292 0.400831,-0.830289 0.954172,-1.588008 1.63504,-2.209678 0.68738,-0.65749 1.41182,-1.27626 2.16576,-1.856221 0.935342,-0.701501 1.908882,-1.351779 2.916622,-1.944579 1.030168,-0.58867 2.076558,-1.14887 3.137789,-1.67949 0.254029,-0.14113 0.520139,-0.26156 0.795821,-0.35346 0.299239,-0.119691 0.611018,-0.2074 0.928108,-0.265101 z m 65.861093,0 c 0.0884,0.383021 0.10338,0.7363 0.0444,1.0604 -0.0589,0.3241 -0.13278,0.648451 -0.22117,0.972551 -0.29464,1.031219 -0.64843,2.047658 -1.06092,3.049419 -0.41249,1.00176 -0.82464,2.003221 -1.23713,3.004992 -0.3241,0.766048 -0.67789,1.532509 -1.06092,2.298559 -0.38303,0.76607 -0.72184,1.54645 -1.01648,2.341978 -0.35356,1.03124 -0.82511,1.988791 -1.41438,2.872682 -0.55981,0.88392 -1.08971,1.797579 -1.5906,2.740429 -0.26517,0.50088 -0.51567,1.00187 -0.75137,1.50272 -0.20625,0.50089 -0.44228,1.00137 -0.70745,1.50225 -0.91338,1.7089 -2.19477,3.04967 -3.84473,4.02199 -0.0884,0.0589 -0.22112,0.11779 -0.39791,0.17671 h -0.22118 c -0.23571,-0.26516 -0.41234,-0.55956 -0.53019,-0.88365 -0.0884,-0.35356 -0.16173,-0.69239 -0.22066,-1.01648 -0.17678,-0.97231 -0.28008,-1.94484 -0.30955,-2.91713 0,-0.9723 0.0589,-1.94432 0.17674,-2.91661 0.0589,-0.58928 0.1178,-1.164119 0.17673,-1.723949 0.0589,-0.589251 0.16222,-1.163582 0.30954,-1.72339 0.14731,-0.6482 0.32396,-1.28193 0.5302,-1.900661 0.23572,-0.6482 0.47123,-1.28143 0.70694,-1.90015 0.14732,-0.383029 0.30949,-0.751279 0.48627,-1.104839 0.20625,-0.383032 0.39786,-0.76626 0.57464,-1.149292 0.4125,-0.85444 0.95738,-1.590939 1.63504,-2.209678 0.67767,-0.6482 1.39971,-1.266941 2.16576,-1.856221 0.94285,-0.707128 1.91537,-1.355309 2.91714,-1.944579 1.03123,-0.58928 2.0771,-1.149141 3.13779,-1.67949 0.26518,-0.14731 0.53013,-0.265071 0.7953,-0.35346 0.29464,-0.11785 0.60401,-0.20617 0.92811,-0.265101 z"
       style="font-style:normal;font-variant:normal;font-weight:normal;font-stretch:normal;font-size:50.79999924px;line-height:1.25;font-family:Luna;-inkscape-font-specification:Luna;letter-spacing:0px;word-spacing:0px;fill:url(#linearGradient4564);fill-opacity:1;stroke:none;stroke-width:0.23018484" />
  </g>
</svg>
